<mxfile host="65bd71144e" modified="2020-12-08T04:39:57.006Z" agent="5.0 (Windows NT 10.0; Win64; x64) AppleWebKit/537.36 (KHTML, like Gecko) Code/1.51.1 Chrome/83.0.4103.122 Electron/9.3.3 Safari/537.36" etag="6JTB9K4-thofVAkA7IrR" version="13.10.0" type="embed">
    <diagram id="J05Tyz99AbtpkcXAZ37s" name="第 1 页">
        <mxGraphModel dx="1697" dy="1233" grid="1" gridSize="10" guides="1" tooltips="1" connect="1" arrows="1" fold="1" page="1" pageScale="1" pageWidth="1169" pageHeight="1654" background="#F1FAEE" math="0" shadow="0">
            <root>
                <mxCell id="0"/>
                <mxCell id="1" parent="0"/>
                <mxCell id="4" value="" style="edgeStyle=orthogonalEdgeStyle;rounded=0;orthogonalLoop=1;jettySize=auto;html=1;strokeColor=#457B9D;fontColor=#1D3557;labelBackgroundColor=#F1FAEE;" parent="1" source="20" target="3" edge="1">
                    <mxGeometry relative="1" as="geometry"/>
                </mxCell>
                <mxCell id="2" value="开始" style="rounded=1;whiteSpace=wrap;html=1;fillColor=#A8DADC;strokeColor=#457B9D;fontColor=#1D3557;" parent="1" vertex="1">
                    <mxGeometry x="354" y="10" width="120" height="60" as="geometry"/>
                </mxCell>
                <mxCell id="7" value="" style="edgeStyle=orthogonalEdgeStyle;rounded=0;orthogonalLoop=1;jettySize=auto;html=1;strokeColor=#457B9D;fontColor=#1D3557;labelBackgroundColor=#F1FAEE;" parent="1" source="3" target="6" edge="1">
                    <mxGeometry relative="1" as="geometry"/>
                </mxCell>
                <mxCell id="3" value="输入功能序号&lt;span style=&quot;font-family: consolas, &amp;quot;courier new&amp;quot;, monospace; font-size: 14px;&quot;&gt;userInId&lt;/span&gt;" style="shape=parallelogram;perimeter=parallelogramPerimeter;whiteSpace=wrap;html=1;fixedSize=1;fontFamily=Helvetica;fontSize=12;align=center;strokeColor=#457B9D;fillColor=#A8DADC;labelBackgroundColor=none;fontColor=#1D3557;" parent="1" vertex="1">
                    <mxGeometry x="329" y="260" width="170" height="60" as="geometry"/>
                </mxCell>
                <mxCell id="16" value="" style="edgeStyle=orthogonalEdgeStyle;rounded=0;orthogonalLoop=1;jettySize=auto;html=1;strokeColor=#457B9D;fontColor=#1D3557;labelBackgroundColor=#F1FAEE;" edge="1" parent="1" source="6" target="15">
                    <mxGeometry relative="1" as="geometry"/>
                </mxCell>
                <mxCell id="25" value="" style="edgeStyle=orthogonalEdgeStyle;rounded=0;orthogonalLoop=1;jettySize=auto;html=1;fontColor=#1D3557;strokeColor=#457B9D;labelBackgroundColor=#F1FAEE;" edge="1" parent="1" source="6" target="24">
                    <mxGeometry relative="1" as="geometry"/>
                </mxCell>
                <mxCell id="6" value="&lt;span style=&quot;font-family: consolas, &amp;quot;courier new&amp;quot;, monospace; font-size: 14px;&quot;&gt;userInId=1&lt;/span&gt;" style="rhombus;whiteSpace=wrap;html=1;fontFamily=Helvetica;fontSize=12;align=center;strokeColor=#457B9D;fillColor=#A8DADC;labelBackgroundColor=none;fontColor=#1D3557;" parent="1" vertex="1">
                    <mxGeometry x="80" y="350" width="120" height="60" as="geometry"/>
                </mxCell>
                <mxCell id="27" value="" style="edgeStyle=orthogonalEdgeStyle;rounded=0;orthogonalLoop=1;jettySize=auto;html=1;fontColor=#1D3557;entryX=0;entryY=0.5;entryDx=0;entryDy=0;strokeColor=#457B9D;labelBackgroundColor=#F1FAEE;" edge="1" parent="1" source="15" target="29">
                    <mxGeometry relative="1" as="geometry">
                        <mxPoint x="281" y="491" as="targetPoint"/>
                    </mxGeometry>
                </mxCell>
                <mxCell id="33" value="" style="edgeStyle=orthogonalEdgeStyle;rounded=0;orthogonalLoop=1;jettySize=auto;html=1;fontColor=#1D3557;strokeColor=#457B9D;labelBackgroundColor=#F1FAEE;" edge="1" parent="1" source="15" target="32">
                    <mxGeometry relative="1" as="geometry"/>
                </mxCell>
                <mxCell id="15" value="&lt;span style=&quot;font-family: consolas, &amp;quot;courier new&amp;quot;, monospace; font-size: 14px;&quot;&gt;userInId=2&lt;/span&gt;" style="rhombus;whiteSpace=wrap;html=1;fontFamily=Helvetica;fontSize=12;align=center;strokeColor=#457B9D;fillColor=#A8DADC;labelBackgroundColor=none;fontColor=#1D3557;" vertex="1" parent="1">
                    <mxGeometry x="80" y="460" width="120" height="60" as="geometry"/>
                </mxCell>
                <mxCell id="17" value="&lt;div style=&quot;font-family: consolas, &amp;quot;courier new&amp;quot;, monospace; font-size: 14px; line-height: 19px;&quot;&gt;&lt;span&gt;初始化菜单映射表&lt;/span&gt;&lt;/div&gt;&lt;div style=&quot;font-family: consolas, &amp;quot;courier new&amp;quot;, monospace; font-size: 14px; line-height: 19px;&quot;&gt;&lt;div style=&quot;font-family: consolas, &amp;quot;courier new&amp;quot;, monospace; line-height: 19px;&quot;&gt;&lt;span style=&quot;&quot;&gt;初始化商品数据控制器&lt;/span&gt;&lt;/div&gt;&lt;/div&gt;" style="rounded=0;whiteSpace=wrap;html=1;align=center;fontColor=#1D3557;labelBackgroundColor=none;fillColor=#A8DADC;strokeColor=#457B9D;" vertex="1" parent="1">
                    <mxGeometry x="336" y="90" width="156" height="60" as="geometry"/>
                </mxCell>
                <mxCell id="18" value="" style="edgeStyle=orthogonalEdgeStyle;rounded=0;orthogonalLoop=1;jettySize=auto;html=1;strokeColor=#457B9D;fontColor=#1D3557;labelBackgroundColor=#F1FAEE;" edge="1" parent="1" source="2" target="17">
                    <mxGeometry relative="1" as="geometry">
                        <mxPoint x="414" y="70" as="sourcePoint"/>
                        <mxPoint x="414" y="160" as="targetPoint"/>
                    </mxGeometry>
                </mxCell>
                <mxCell id="20" value="&lt;div style=&quot;font-family: consolas, &amp;quot;courier new&amp;quot;, monospace; font-size: 14px; line-height: 19px;&quot;&gt;&lt;span style=&quot;&quot;&gt;打印菜单并等待输入&lt;/span&gt;&lt;/div&gt;" style="rounded=0;whiteSpace=wrap;html=1;labelBackgroundColor=none;align=center;fillColor=#A8DADC;strokeColor=#457B9D;fontColor=#1D3557;" vertex="1" parent="1">
                    <mxGeometry x="344" y="180" width="140" height="60" as="geometry"/>
                </mxCell>
                <mxCell id="21" value="" style="edgeStyle=orthogonalEdgeStyle;rounded=0;orthogonalLoop=1;jettySize=auto;html=1;strokeColor=#457B9D;fontColor=#1D3557;labelBackgroundColor=#F1FAEE;" edge="1" parent="1" source="17" target="20">
                    <mxGeometry relative="1" as="geometry">
                        <mxPoint x="414" y="160" as="sourcePoint"/>
                        <mxPoint x="414" y="240" as="targetPoint"/>
                    </mxGeometry>
                </mxCell>
                <mxCell id="30" style="edgeStyle=orthogonalEdgeStyle;rounded=0;orthogonalLoop=1;jettySize=auto;html=1;exitX=1;exitY=0.5;exitDx=0;exitDy=0;fontColor=#1D3557;entryX=1;entryY=0;entryDx=0;entryDy=0;strokeColor=#457B9D;labelBackgroundColor=#F1FAEE;" edge="1" parent="1" source="24" target="20">
                    <mxGeometry relative="1" as="geometry">
                        <mxPoint x="640" y="210" as="targetPoint"/>
                        <Array as="points">
                            <mxPoint x="600" y="380"/>
                            <mxPoint x="600" y="160"/>
                            <mxPoint x="414" y="160"/>
                            <mxPoint x="414" y="180"/>
                        </Array>
                    </mxGeometry>
                </mxCell>
                <mxCell id="24" value="&lt;div style=&quot;font-family: &amp;#34;consolas&amp;#34; , &amp;#34;courier new&amp;#34; , monospace ; font-size: 14px ; line-height: 19px&quot;&gt;&lt;div style=&quot;line-height: 19px&quot;&gt;&lt;span&gt;从商品控制器获得的商品列表并&lt;/span&gt;&lt;span&gt;遍历展示&lt;/span&gt;&lt;/div&gt;&lt;/div&gt;" style="whiteSpace=wrap;html=1;labelBackgroundColor=none;fillColor=#A8DADC;strokeColor=#457B9D;fontColor=#1D3557;" vertex="1" parent="1">
                    <mxGeometry x="280" y="350" width="140" height="60" as="geometry"/>
                </mxCell>
                <mxCell id="31" style="edgeStyle=orthogonalEdgeStyle;rounded=0;orthogonalLoop=1;jettySize=auto;html=1;exitX=1;exitY=0.5;exitDx=0;exitDy=0;fontColor=#1D3557;strokeColor=#457B9D;labelBackgroundColor=#F1FAEE;" edge="1" parent="1" source="29">
                    <mxGeometry relative="1" as="geometry">
                        <mxPoint x="600" y="380" as="targetPoint"/>
                    </mxGeometry>
                </mxCell>
                <mxCell id="29" value="&lt;div style=&quot;font-family: &amp;#34;consolas&amp;#34; , &amp;#34;courier new&amp;#34; , monospace ; font-size: 14px ; line-height: 19px&quot;&gt;&lt;div style=&quot;line-height: 19px&quot;&gt;&lt;span&gt;从商品控制器获得的购物列表并&lt;/span&gt;&lt;span&gt;遍历展示&lt;/span&gt;&lt;/div&gt;&lt;/div&gt;" style="whiteSpace=wrap;html=1;labelBackgroundColor=none;fillColor=#A8DADC;strokeColor=#457B9D;fontColor=#1D3557;" vertex="1" parent="1">
                    <mxGeometry x="280" y="460" width="140" height="60" as="geometry"/>
                </mxCell>
                <mxCell id="35" value="" style="edgeStyle=orthogonalEdgeStyle;rounded=0;orthogonalLoop=1;jettySize=auto;html=1;fontColor=#1D3557;strokeColor=#457B9D;labelBackgroundColor=#F1FAEE;" edge="1" parent="1" source="32" target="34">
                    <mxGeometry relative="1" as="geometry"/>
                </mxCell>
                <mxCell id="42" value="" style="edgeStyle=orthogonalEdgeStyle;rounded=0;orthogonalLoop=1;jettySize=auto;html=1;fontColor=#1D3557;strokeColor=#457B9D;labelBackgroundColor=#F1FAEE;" edge="1" parent="1" source="32" target="41">
                    <mxGeometry relative="1" as="geometry"/>
                </mxCell>
                <mxCell id="32" value="&lt;span style=&quot;font-family: &amp;#34;consolas&amp;#34; , &amp;#34;courier new&amp;#34; , monospace ; font-size: 14px&quot;&gt;userInId=3&lt;/span&gt;" style="rhombus;whiteSpace=wrap;html=1;fontFamily=Helvetica;fontSize=12;align=center;strokeColor=#457B9D;fillColor=#A8DADC;labelBackgroundColor=none;fontColor=#1D3557;" vertex="1" parent="1">
                    <mxGeometry x="80" y="570" width="120" height="60" as="geometry"/>
                </mxCell>
                <mxCell id="37" value="" style="edgeStyle=orthogonalEdgeStyle;rounded=0;orthogonalLoop=1;jettySize=auto;html=1;fontColor=#1D3557;strokeColor=#457B9D;labelBackgroundColor=#F1FAEE;" edge="1" parent="1" source="34" target="36">
                    <mxGeometry relative="1" as="geometry"/>
                </mxCell>
                <mxCell id="34" value="&lt;div style=&quot;font-family: &amp;#34;consolas&amp;#34; , &amp;#34;courier new&amp;#34; , monospace ; font-size: 14px ; line-height: 19px&quot;&gt;&lt;span&gt;显示商品清单便于输入添加物品&lt;/span&gt;&lt;/div&gt;" style="whiteSpace=wrap;html=1;labelBackgroundColor=none;fillColor=#A8DADC;strokeColor=#457B9D;fontColor=#1D3557;" vertex="1" parent="1">
                    <mxGeometry x="280" y="570" width="80" height="60" as="geometry"/>
                </mxCell>
                <mxCell id="39" value="" style="edgeStyle=orthogonalEdgeStyle;rounded=0;orthogonalLoop=1;jettySize=auto;html=1;fontColor=#1D3557;strokeColor=#457B9D;labelBackgroundColor=#F1FAEE;" edge="1" parent="1" source="36" target="38">
                    <mxGeometry relative="1" as="geometry"/>
                </mxCell>
                <mxCell id="36" value="&lt;div style=&quot;font-family: &amp;quot;consolas&amp;quot; , &amp;quot;courier new&amp;quot; , monospace ; font-size: 14px ; line-height: 19px&quot;&gt;&lt;span style=&quot;font-family: &amp;quot;consolas&amp;quot; , &amp;quot;courier new&amp;quot; , monospace&quot;&gt;输入物品序号&lt;/span&gt;productId&lt;/div&gt;&lt;div style=&quot;font-family: &amp;quot;consolas&amp;quot; , &amp;quot;courier new&amp;quot; , monospace ; font-size: 14px ; line-height: 19px&quot;&gt;&lt;div style=&quot;font-family: consolas, &amp;quot;courier new&amp;quot;, monospace; line-height: 19px;&quot;&gt;&lt;span style=&quot;&quot;&gt;输入[物品数]&lt;/span&gt;&lt;span&gt;productCount&lt;/span&gt;&lt;/div&gt;&lt;/div&gt;" style="shape=parallelogram;perimeter=parallelogramPerimeter;whiteSpace=wrap;html=1;fixedSize=1;fontFamily=Helvetica;fontSize=12;align=center;strokeColor=#457B9D;fillColor=#A8DADC;labelBackgroundColor=none;fontColor=#1D3557;" vertex="1" parent="1">
                    <mxGeometry x="390" y="570" width="210" height="60" as="geometry"/>
                </mxCell>
                <mxCell id="40" style="edgeStyle=orthogonalEdgeStyle;rounded=0;orthogonalLoop=1;jettySize=auto;html=1;exitX=1;exitY=0.5;exitDx=0;exitDy=0;fontColor=#1D3557;strokeColor=#457B9D;labelBackgroundColor=#F1FAEE;" edge="1" parent="1" source="38">
                    <mxGeometry relative="1" as="geometry">
                        <mxPoint x="600" y="160" as="targetPoint"/>
                        <Array as="points">
                            <mxPoint x="840" y="600"/>
                            <mxPoint x="840" y="160"/>
                        </Array>
                    </mxGeometry>
                </mxCell>
                <mxCell id="38" value="&lt;div style=&quot;font-family: &amp;quot;consolas&amp;quot; , &amp;quot;courier new&amp;quot; , monospace ; font-size: 14px ; line-height: 19px&quot;&gt;&lt;span&gt;调用控制器添加方法传递变量&lt;/span&gt;&lt;/div&gt;&lt;span style=&quot;font-family: &amp;quot;consolas&amp;quot; , &amp;quot;courier new&amp;quot; , monospace ; font-size: 14px&quot;&gt;productId与&lt;/span&gt;&lt;span style=&quot;font-family: &amp;quot;consolas&amp;quot; , &amp;quot;courier new&amp;quot; , monospace ; font-size: 14px&quot;&gt;productCount&lt;/span&gt;&lt;div style=&quot;font-family: &amp;quot;consolas&amp;quot; , &amp;quot;courier new&amp;quot; , monospace ; font-size: 14px ; line-height: 19px&quot;&gt;&lt;span&gt;并展示&lt;/span&gt;&lt;span&gt;处理结果&lt;/span&gt;&lt;/div&gt;" style="whiteSpace=wrap;html=1;labelBackgroundColor=none;fillColor=#A8DADC;strokeColor=#457B9D;fontColor=#1D3557;" vertex="1" parent="1">
                    <mxGeometry x="630" y="555" width="120" height="90" as="geometry"/>
                </mxCell>
                <mxCell id="44" value="" style="edgeStyle=orthogonalEdgeStyle;rounded=0;orthogonalLoop=1;jettySize=auto;html=1;fontColor=#1D3557;strokeColor=#457B9D;labelBackgroundColor=#F1FAEE;" edge="1" parent="1" source="41" target="43">
                    <mxGeometry relative="1" as="geometry"/>
                </mxCell>
                <mxCell id="54" value="" style="edgeStyle=orthogonalEdgeStyle;rounded=0;orthogonalLoop=1;jettySize=auto;html=1;fontColor=#1D3557;strokeColor=#457B9D;labelBackgroundColor=#F1FAEE;" edge="1" parent="1" source="41" target="53">
                    <mxGeometry relative="1" as="geometry"/>
                </mxCell>
                <mxCell id="41" value="&lt;span style=&quot;font-family: &amp;#34;consolas&amp;#34; , &amp;#34;courier new&amp;#34; , monospace ; font-size: 14px&quot;&gt;userInId=4&lt;/span&gt;" style="rhombus;whiteSpace=wrap;html=1;fontFamily=Helvetica;fontSize=12;align=center;strokeColor=#457B9D;fillColor=#A8DADC;labelBackgroundColor=none;fontColor=#1D3557;" vertex="1" parent="1">
                    <mxGeometry x="80" y="680" width="120" height="60" as="geometry"/>
                </mxCell>
                <mxCell id="46" value="" style="edgeStyle=orthogonalEdgeStyle;rounded=0;orthogonalLoop=1;jettySize=auto;html=1;fontColor=#1D3557;strokeColor=#457B9D;labelBackgroundColor=#F1FAEE;" edge="1" parent="1" source="43" target="45">
                    <mxGeometry relative="1" as="geometry"/>
                </mxCell>
                <mxCell id="43" value="&lt;div style=&quot;font-family: &amp;quot;consolas&amp;quot; , &amp;quot;courier new&amp;quot; , monospace ; font-size: 14px ; line-height: 19px&quot;&gt;&lt;span&gt;显示&lt;/span&gt;&lt;span style=&quot;font-family: &amp;quot;consolas&amp;quot; , &amp;quot;courier new&amp;quot; , monospace&quot;&gt;购物&lt;/span&gt;&lt;span&gt;清单便于输入&lt;/span&gt;&lt;span style=&quot;font-family: consolas, &amp;quot;courier new&amp;quot;, monospace;&quot;&gt;修改&lt;/span&gt;&lt;span&gt;物品&lt;/span&gt;&lt;/div&gt;" style="html=1;labelBackgroundColor=none;whiteSpace=wrap;fillColor=#A8DADC;strokeColor=#457B9D;fontColor=#1D3557;" vertex="1" parent="1">
                    <mxGeometry x="280" y="680" width="80" height="60" as="geometry"/>
                </mxCell>
                <mxCell id="51" value="" style="edgeStyle=orthogonalEdgeStyle;rounded=0;orthogonalLoop=1;jettySize=auto;html=1;fontColor=#1D3557;strokeColor=#457B9D;labelBackgroundColor=#F1FAEE;" edge="1" parent="1" source="45" target="49">
                    <mxGeometry relative="1" as="geometry"/>
                </mxCell>
                <mxCell id="45" value="&lt;div style=&quot;font-family: &amp;quot;consolas&amp;quot; , &amp;quot;courier new&amp;quot; , monospace ; font-size: 14px ; line-height: 19px&quot;&gt;&lt;span style=&quot;font-family: &amp;quot;consolas&amp;quot; , &amp;quot;courier new&amp;quot; , monospace&quot;&gt;输入修改物品序号&lt;/span&gt;&lt;span style=&quot;font-family: consolas, &amp;quot;courier new&amp;quot;, monospace;&quot;&gt;productIndex&lt;/span&gt;&lt;/div&gt;&lt;div style=&quot;font-family: &amp;quot;consolas&amp;quot; , &amp;quot;courier new&amp;quot; , monospace ; font-size: 14px ; line-height: 19px&quot;&gt;&lt;div style=&quot;font-family: &amp;quot;consolas&amp;quot; , &amp;quot;courier new&amp;quot; , monospace ; line-height: 19px&quot;&gt;&lt;span&gt;输入[物品数]&lt;/span&gt;&lt;span&gt;productCount&lt;/span&gt;&lt;/div&gt;&lt;/div&gt;" style="shape=parallelogram;perimeter=parallelogramPerimeter;whiteSpace=wrap;html=1;fixedSize=1;fontFamily=Helvetica;fontSize=12;align=center;strokeColor=#457B9D;fillColor=#A8DADC;labelBackgroundColor=none;fontColor=#1D3557;" vertex="1" parent="1">
                    <mxGeometry x="390" y="675" width="240" height="70" as="geometry"/>
                </mxCell>
                <mxCell id="52" style="edgeStyle=orthogonalEdgeStyle;rounded=0;orthogonalLoop=1;jettySize=auto;html=1;exitX=1;exitY=0.5;exitDx=0;exitDy=0;fontColor=#1D3557;strokeColor=#457B9D;labelBackgroundColor=#F1FAEE;" edge="1" parent="1" source="49">
                    <mxGeometry relative="1" as="geometry">
                        <mxPoint x="840" y="600" as="targetPoint"/>
                    </mxGeometry>
                </mxCell>
                <mxCell id="49" value="&lt;div style=&quot;font-family: &amp;quot;consolas&amp;quot; , &amp;quot;courier new&amp;quot; , monospace ; font-size: 14px ; line-height: 19px&quot;&gt;&lt;span&gt;调用控制器修改方法传递变量&lt;/span&gt;&lt;/div&gt;&lt;span style=&quot;font-family: consolas, &amp;quot;courier new&amp;quot;, monospace; font-size: 14px;&quot;&gt;productIndex&lt;/span&gt;&lt;span style=&quot;font-family: &amp;quot;consolas&amp;quot; , &amp;quot;courier new&amp;quot; , monospace ; font-size: 14px&quot;&gt;与&lt;br&gt;&lt;/span&gt;&lt;span style=&quot;font-family: &amp;quot;consolas&amp;quot; , &amp;quot;courier new&amp;quot; , monospace ; font-size: 14px&quot;&gt;productCount&lt;/span&gt;&lt;div style=&quot;font-family: &amp;quot;consolas&amp;quot; , &amp;quot;courier new&amp;quot; , monospace ; font-size: 14px ; line-height: 19px&quot;&gt;&lt;span&gt;并展示&lt;/span&gt;&lt;span&gt;处理结果&lt;/span&gt;&lt;/div&gt;" style="whiteSpace=wrap;html=1;labelBackgroundColor=none;fillColor=#A8DADC;strokeColor=#457B9D;fontColor=#1D3557;" vertex="1" parent="1">
                    <mxGeometry x="660" y="665" width="130" height="90" as="geometry"/>
                </mxCell>
                <mxCell id="56" value="" style="edgeStyle=orthogonalEdgeStyle;rounded=0;orthogonalLoop=1;jettySize=auto;html=1;fontColor=#1D3557;strokeColor=#457B9D;labelBackgroundColor=#F1FAEE;" edge="1" parent="1" source="53" target="55">
                    <mxGeometry relative="1" as="geometry"/>
                </mxCell>
                <mxCell id="63" value="" style="edgeStyle=orthogonalEdgeStyle;rounded=0;orthogonalLoop=1;jettySize=auto;html=1;fontColor=#1D3557;strokeColor=#457B9D;labelBackgroundColor=#F1FAEE;" edge="1" parent="1" source="53" target="62">
                    <mxGeometry relative="1" as="geometry"/>
                </mxCell>
                <mxCell id="53" value="&lt;span style=&quot;font-family: &amp;#34;consolas&amp;#34; , &amp;#34;courier new&amp;#34; , monospace ; font-size: 14px&quot;&gt;userInId=5&lt;/span&gt;" style="rhombus;whiteSpace=wrap;html=1;fontFamily=Helvetica;fontSize=12;align=center;strokeColor=#457B9D;fillColor=#A8DADC;labelBackgroundColor=none;fontColor=#1D3557;" vertex="1" parent="1">
                    <mxGeometry x="80" y="790" width="120" height="60" as="geometry"/>
                </mxCell>
                <mxCell id="58" value="" style="edgeStyle=orthogonalEdgeStyle;rounded=0;orthogonalLoop=1;jettySize=auto;html=1;fontColor=#1D3557;strokeColor=#457B9D;labelBackgroundColor=#F1FAEE;" edge="1" parent="1" source="55" target="57">
                    <mxGeometry relative="1" as="geometry"/>
                </mxCell>
                <mxCell id="55" value="&lt;div style=&quot;font-family: &amp;#34;consolas&amp;#34; , &amp;#34;courier new&amp;#34; , monospace ; font-size: 14px ; line-height: 19px&quot;&gt;&lt;span&gt;显示&lt;/span&gt;&lt;span style=&quot;font-family: &amp;#34;consolas&amp;#34; , &amp;#34;courier new&amp;#34; , monospace&quot;&gt;购物&lt;/span&gt;&lt;span&gt;清单便于输入删除&lt;/span&gt;&lt;span&gt;物品&lt;/span&gt;&lt;/div&gt;" style="html=1;labelBackgroundColor=none;whiteSpace=wrap;fillColor=#A8DADC;strokeColor=#457B9D;fontColor=#1D3557;" vertex="1" parent="1">
                    <mxGeometry x="280" y="790" width="80" height="60" as="geometry"/>
                </mxCell>
                <mxCell id="60" value="" style="edgeStyle=orthogonalEdgeStyle;rounded=0;orthogonalLoop=1;jettySize=auto;html=1;fontColor=#1D3557;strokeColor=#457B9D;labelBackgroundColor=#F1FAEE;" edge="1" parent="1" source="57" target="59">
                    <mxGeometry relative="1" as="geometry"/>
                </mxCell>
                <mxCell id="57" value="&lt;div style=&quot;font-family: &amp;#34;consolas&amp;#34; , &amp;#34;courier new&amp;#34; , monospace ; font-size: 14px ; line-height: 19px&quot;&gt;&lt;span style=&quot;font-family: &amp;#34;consolas&amp;#34; , &amp;#34;courier new&amp;#34; , monospace&quot;&gt;输入删除物品序号&lt;/span&gt;&lt;span style=&quot;font-family: &amp;#34;consolas&amp;#34; , &amp;#34;courier new&amp;#34; , monospace&quot;&gt;productIndex&lt;/span&gt;&lt;/div&gt;" style="shape=parallelogram;perimeter=parallelogramPerimeter;whiteSpace=wrap;html=1;fixedSize=1;fontFamily=Helvetica;fontSize=12;align=center;strokeColor=#457B9D;fillColor=#A8DADC;labelBackgroundColor=none;fontColor=#1D3557;" vertex="1" parent="1">
                    <mxGeometry x="390" y="792.5" width="240" height="55" as="geometry"/>
                </mxCell>
                <mxCell id="61" style="edgeStyle=orthogonalEdgeStyle;rounded=0;orthogonalLoop=1;jettySize=auto;html=1;exitX=1;exitY=0.5;exitDx=0;exitDy=0;fontColor=#1D3557;strokeColor=#457B9D;labelBackgroundColor=#F1FAEE;" edge="1" parent="1" source="59">
                    <mxGeometry relative="1" as="geometry">
                        <mxPoint x="840" y="710" as="targetPoint"/>
                    </mxGeometry>
                </mxCell>
                <mxCell id="59" value="&lt;div style=&quot;font-family: &amp;#34;consolas&amp;#34; , &amp;#34;courier new&amp;#34; , monospace ; font-size: 14px ; line-height: 19px&quot;&gt;&lt;span&gt;调用控制器删除方法传递变量&lt;/span&gt;&lt;/div&gt;&lt;span style=&quot;font-family: &amp;#34;consolas&amp;#34; , &amp;#34;courier new&amp;#34; , monospace ; font-size: 14px&quot;&gt;productIndex&lt;/span&gt;&lt;br&gt;&lt;div style=&quot;font-family: &amp;#34;consolas&amp;#34; , &amp;#34;courier new&amp;#34; , monospace ; font-size: 14px ; line-height: 19px&quot;&gt;&lt;span&gt;并展示&lt;/span&gt;&lt;span&gt;处理结果&lt;/span&gt;&lt;/div&gt;" style="whiteSpace=wrap;html=1;labelBackgroundColor=none;fillColor=#A8DADC;strokeColor=#457B9D;fontColor=#1D3557;" vertex="1" parent="1">
                    <mxGeometry x="660" y="775" width="130" height="90" as="geometry"/>
                </mxCell>
                <mxCell id="65" value="" style="edgeStyle=orthogonalEdgeStyle;rounded=0;orthogonalLoop=1;jettySize=auto;html=1;fontColor=#1D3557;strokeColor=#457B9D;labelBackgroundColor=#F1FAEE;" edge="1" parent="1" source="62" target="64">
                    <mxGeometry relative="1" as="geometry"/>
                </mxCell>
                <mxCell id="70" value="" style="edgeStyle=orthogonalEdgeStyle;rounded=0;orthogonalLoop=1;jettySize=auto;html=1;fontColor=#1D3557;strokeColor=#457B9D;labelBackgroundColor=#F1FAEE;" edge="1" parent="1" source="62" target="69">
                    <mxGeometry relative="1" as="geometry"/>
                </mxCell>
                <mxCell id="62" value="&lt;span style=&quot;font-family: &amp;#34;consolas&amp;#34; , &amp;#34;courier new&amp;#34; , monospace ; font-size: 14px&quot;&gt;userInId=6&lt;/span&gt;" style="rhombus;whiteSpace=wrap;html=1;fontFamily=Helvetica;fontSize=12;align=center;strokeColor=#457B9D;fillColor=#A8DADC;labelBackgroundColor=none;fontColor=#1D3557;" vertex="1" parent="1">
                    <mxGeometry x="80" y="900" width="120" height="60" as="geometry"/>
                </mxCell>
                <mxCell id="67" value="" style="edgeStyle=orthogonalEdgeStyle;rounded=0;orthogonalLoop=1;jettySize=auto;html=1;fontColor=#1D3557;strokeColor=#457B9D;labelBackgroundColor=#F1FAEE;" edge="1" parent="1" source="64" target="66">
                    <mxGeometry relative="1" as="geometry"/>
                </mxCell>
                <mxCell id="64" value="&lt;span style=&quot;font-family: &amp;quot;consolas&amp;quot; , &amp;quot;courier new&amp;quot; , monospace ; font-size: 14px&quot;&gt;显示&lt;/span&gt;&lt;span style=&quot;font-family: &amp;quot;consolas&amp;quot; , &amp;quot;courier new&amp;quot; , monospace ; font-size: 14px&quot;&gt;购物&lt;/span&gt;&lt;span style=&quot;font-family: &amp;quot;consolas&amp;quot; , &amp;quot;courier new&amp;quot; , monospace ; font-size: 14px&quot;&gt;清单&lt;/span&gt;&lt;div style=&quot;font-family: consolas, &amp;quot;courier new&amp;quot;, monospace; font-size: 14px; line-height: 19px;&quot;&gt;&lt;span style=&quot;&quot;&gt;计算展示总价&lt;/span&gt;&lt;/div&gt;" style="whiteSpace=wrap;html=1;labelBackgroundColor=none;fillColor=#A8DADC;strokeColor=#457B9D;fontColor=#1D3557;" vertex="1" parent="1">
                    <mxGeometry x="280" y="900" width="120" height="60" as="geometry"/>
                </mxCell>
                <mxCell id="68" style="edgeStyle=orthogonalEdgeStyle;rounded=0;orthogonalLoop=1;jettySize=auto;html=1;exitX=1;exitY=0.5;exitDx=0;exitDy=0;fontColor=#1D3557;strokeColor=#457B9D;labelBackgroundColor=#F1FAEE;" edge="1" parent="1" source="66">
                    <mxGeometry relative="1" as="geometry">
                        <mxPoint x="840" y="820" as="targetPoint"/>
                    </mxGeometry>
                </mxCell>
                <mxCell id="66" value="&lt;span style=&quot;font-family: &amp;#34;consolas&amp;#34; , &amp;#34;courier new&amp;#34; , monospace ; font-size: 14px&quot;&gt;调用控制器清空购物清单方法&lt;/span&gt;" style="whiteSpace=wrap;html=1;fillColor=#A8DADC;strokeColor=#457B9D;fontColor=#1D3557;" vertex="1" parent="1">
                    <mxGeometry x="480" y="900" width="120" height="60" as="geometry"/>
                </mxCell>
                <mxCell id="72" value="" style="edgeStyle=orthogonalEdgeStyle;rounded=0;orthogonalLoop=1;jettySize=auto;html=1;fontColor=#1D3557;entryX=0;entryY=0.5;entryDx=0;entryDy=0;strokeColor=#457B9D;labelBackgroundColor=#F1FAEE;" edge="1" parent="1" source="69" target="73">
                    <mxGeometry relative="1" as="geometry">
                        <mxPoint x="280" y="1040" as="targetPoint"/>
                    </mxGeometry>
                </mxCell>
                <mxCell id="69" value="&lt;span style=&quot;font-family: &amp;#34;consolas&amp;#34; , &amp;#34;courier new&amp;#34; , monospace ; font-size: 14px&quot;&gt;userInId=7&lt;/span&gt;" style="rhombus;whiteSpace=wrap;html=1;fontFamily=Helvetica;fontSize=12;align=center;strokeColor=#457B9D;fillColor=#A8DADC;labelBackgroundColor=none;fontColor=#1D3557;" vertex="1" parent="1">
                    <mxGeometry x="80" y="1010" width="120" height="60" as="geometry"/>
                </mxCell>
                <mxCell id="73" value="结束" style="rounded=1;whiteSpace=wrap;html=1;labelBackgroundColor=none;fontColor=#1D3557;align=center;fillColor=#A8DADC;strokeColor=#457B9D;" vertex="1" parent="1">
                    <mxGeometry x="280" y="1010" width="120" height="60" as="geometry"/>
                </mxCell>
            </root>
        </mxGraphModel>
    </diagram>
</mxfile>